<svg width="18" height="20" viewBox="0 0 18 20" fill="none" xmlns="http://www.w3.org/2000/svg">
<path fill-rule="evenodd" clip-rule="evenodd" d="M2.10487 6.25198C2.10487 3.22293 4.89864 0 9 0C13.1014 0 15.8951 3.22293 15.8951 6.25198C15.8951 6.95001 15.9837 7.42413 16.0977 7.77788C16.2123 8.13348 16.3649 8.40892 16.5563 8.72961C16.5757 8.76217 16.5959 8.79577 16.6168 8.83042C16.7933 9.12386 17.0149 9.4922 17.1835 9.93378C17.3805 10.4499 17.5 11.0419 17.5 11.7957C17.5 11.8246 17.4988 11.8534 17.4963 11.8821C17.4278 12.6723 17.1909 13.3872 16.7256 13.9898C16.263 14.5888 15.6318 15.0029 14.8976 15.2908C13.4776 15.8476 11.4844 16 9 16C6.5171 16 4.52388 15.8501 3.10386 15.2947C2.36936 15.0075 1.73769 14.5936 1.27473 13.9936C0.809197 13.3903 0.57239 12.6741 0.503736 11.8821C0.501246 11.8534 0.5 11.8246 0.5 11.7957C0.5 11.0419 0.619516 10.4499 0.816507 9.93378C0.985059 9.4922 1.20666 9.12387 1.38321 8.83042C1.40406 8.79577 1.42427 8.76217 1.4437 8.72961C1.63507 8.40892 1.78771 8.13348 1.9023 7.77788C2.0163 7.42413 2.10487 6.95001 2.10487 6.25198ZM9 2C5.96272 2 4.10487 4.36755 4.10487 6.25198C4.10487 7.12655 3.99282 7.81127 3.80591 8.39131C3.61959 8.9695 3.37101 9.40279 3.16116 9.75446C3.14116 9.78799 3.12175 9.82041 3.10292 9.85188C2.91723 10.1621 2.78712 10.3795 2.68501 10.647C2.58401 10.9116 2.50458 11.2483 2.50019 11.7517C2.54698 12.2236 2.67913 12.5398 2.85815 12.7718C3.04503 13.014 3.34162 13.2402 3.83235 13.4321C4.86281 13.8352 6.50799 14 9 14C11.4914 14 13.137 13.8329 14.1675 13.4288C14.6586 13.2363 14.9555 13.0096 15.1426 12.7674C15.3216 12.5356 15.4533 12.2205 15.4998 11.7517C15.4954 11.2483 15.416 10.9116 15.315 10.647C15.2129 10.3795 15.0828 10.1621 14.8971 9.85188C14.8783 9.82041 14.8588 9.78799 14.8388 9.75446C14.629 9.40279 14.3804 8.9695 14.1941 8.39131C14.0072 7.81127 13.8951 7.12655 13.8951 6.25198C13.8951 4.36755 12.0373 2 9 2ZM6.35523 17.2356C6.77739 16.8795 7.40828 16.9331 7.76438 17.3552C8.15974 17.8239 8.60855 18.0011 9.00129 18C9.39561 17.9989 9.84457 17.8178 10.2363 17.3544C10.5929 16.9326 11.2239 16.8798 11.6456 17.2363C12.0674 17.5929 12.1202 18.2239 11.7637 18.6456C11.0348 19.5077 10.0495 19.9971 9.00675 20C7.96246 20.0028 6.97158 19.5172 6.23562 18.6448C5.87953 18.2226 5.93308 17.5917 6.35523 17.2356Z" fill="#808281"/>
</svg>
