<svg width="16" height="16" viewBox="0 0 16 16" fill="none" xmlns="http://www.w3.org/2000/svg">
<path fill-rule="evenodd" clip-rule="evenodd" d="M0.5 7.0357C0.5 3.42613 3.42613 0.5 7.0357 0.5C10.6453 0.5 13.5714 3.42613 13.5714 7.0357C13.5714 8.57027 13.0425 9.98131 12.1571 11.0965L15.2803 14.2197C15.5732 14.5126 15.5732 14.9874 15.2803 15.2803C14.9874 15.5732 14.5125 15.5732 14.2196 15.2803L11.0964 12.1571C9.98126 13.0425 8.57024 13.5714 7.0357 13.5714C3.42613 13.5714 0.5 10.6453 0.5 7.0357ZM7.0357 2C4.25456 2 2 4.25456 2 7.0357C2 9.81684 4.25456 12.0714 7.0357 12.0714C9.81684 12.0714 12.0714 9.81684 12.0714 7.0357C12.0714 4.25456 9.81684 2 7.0357 2Z" fill="#808281"/>
</svg>
